<?xml version="1.0" encoding="utf-8"?>
<!-- Generator: Adobe Illustrator 23.0.3, SVG Export Plug-In . SVG Version: 6.00 Build 0)  -->
<svg version="1.1" xmlns="http://www.w3.org/2000/svg" xmlns:xlink="http://www.w3.org/1999/xlink" x="0px" y="0px"
	 viewBox="0 0 585.33 121.33" style="enable-background:new 0 0 585.33 121.33;" xml:space="preserve">
<style type="text/css">
	.st0{fill:#FFFFFF;}
	.st1{fill:#231F20;}
	.st2{fill:none;stroke:#FFFFFF;stroke-width:0.6975;stroke-miterlimit:10;}
	.st3{fill:none;stroke:#FFFFFF;stroke-width:0.6975;stroke-linecap:round;stroke-miterlimit:10;}
	.st4{fill:#648EC9;}
</style>
<g id="background">
	<rect x="-0.67" y="-0.67" class="st0" width="587.5" height="123"/>
</g>
<g id="grace">
	<g>
		<path d="M185.99,89.89c-1.07,0-3.08-0.06-3.61-0.25c-0.55-0.19-1.77-0.8-0.96-1.55c0.69-0.63,1.78-0.74,2.64-0.74
			c-0.16,0-0.32,0-0.48,0c2.35,0,5.75-0.45,6.74-3.13c1.03-2.79-1.24-4.77-3.59-5.38c-1.76-0.46-3.98-0.57-5.81-0.33
			c-2.01,0.26-1.69,1.72-1.69,3.34c0,1.71,0,3.42,0,5.14c0,0.36,0.04,0.75-0.02,1.12c-0.22,1.47-2.05,1.75-3.17,1.78
			c-1.76,0.04-4.52,0.06-4.52-2.4c0-1.59,0-3.17,0-4.76c0-1.09-0.18-2.41,0.09-3.48c0.68-2.71,4.7-3.18,6.86-3.28
			c2.49-0.12,5.01-0.03,7.51-0.02c4.21,0,11.8,0.96,12.04,6.83C198.28,88.83,190.13,89.89,185.99,89.89"/>
		<path d="M185.99,89.89c0,0-2.24,0.06-3.61-0.25c-0.55-0.19-1.77-0.8-0.96-1.55c0.69-0.63,1.78-0.74,2.64-0.74
			c-0.16,0-0.32,0-0.48,0c2.35,0,5.75-0.45,6.74-3.13c1.03-2.79-1.24-4.77-3.59-5.38c-1.76-0.46-3.98-0.57-5.81-0.33
			c-2.01,0.26-1.69,1.72-1.69,3.34c0,1.71,0,3.42,0,5.14c0,0.36,0.04,0.75-0.02,1.12c-0.22,1.47-2.05,1.75-3.17,1.78
			c-1.76,0.04-4.52,0.06-4.52-2.4c0-1.59,0-3.17,0-4.76c0-1.09-0.18-2.41,0.09-3.48c0.68-2.71,4.7-3.18,6.86-3.28
			c2.49-0.12,5.01-0.03,7.51-0.02c4.21,0,11.8,0.96,12.04,6.83C198.28,88.83,190.13,89.89,185.99,89.89"/>
		<path d="M264.05,83.8c2.43-1.29-0.64-2.28-1.94-2.28c-0.82,0-1.64,0-2.45,0c-2.08,0-4.76-0.43-6.74,0.36
			c-0.54,0.22-1.34,0.82-0.66,1.44c0.69,0.63,1.77,0.74,2.64,0.74c0.75,0.01,1.51,0,2.26,0c1.27,0,2.53,0,3.8,0
			C261.98,84.06,263.06,84.15,264.05,83.8 M264.05,89.64c-1.22,0.43-2.71,0.25-3.99,0.25c-1.67,0-3.34,0-5.01,0
			c-4.06,0-9.19-0.02-12.12-3.5c-1.36-1.61-1.72-4.12-0.72-6.04c1.17-2.22,3.95-3.35,6.16-3.9c3.42-0.85,7.2-0.51,10.7-0.51
			c1.1,0,2.2-0.01,3.29,0c0.76,0.01,2.41,0.17,2.41,1.26c0,1.19-1.85,1.27-2.65,1.27c-2.8,0.05-5.77-0.31-8.54,0.22
			c-2.32,0.44-4.9,2.01-4.43,4.9c0.47,2.87,3.89,3.62,6.18,3.74c1.36,0.06,2.73,0.02,4.09,0.02c1.28,0,2.79-0.19,4.04,0.15
			C264.79,87.86,265.65,88.8,264.05,89.64"/>
		<path d="M264.05,83.8c2.43-1.29-0.64-2.28-1.94-2.28c-0.82,0-1.64,0-2.45,0c-2.08,0-4.76-0.43-6.74,0.36
			c-0.54,0.22-1.34,0.82-0.66,1.44c0.69,0.63,1.77,0.74,2.64,0.74c0.75,0.01,1.51,0,2.26,0c1.27,0,2.53,0,3.8,0
			C261.98,84.06,263.06,84.15,264.05,83.8"/>
		<path d="M264.05,89.64c-1.22,0.43-2.71,0.25-3.99,0.25c-1.67,0-3.34,0-5.01,0c-4.06,0-9.19-0.02-12.12-3.5
			c-1.36-1.61-1.72-4.12-0.72-6.04c1.17-2.22,3.95-3.35,6.16-3.9c3.42-0.85,7.2-0.51,10.7-0.51c1.1,0,2.2-0.01,3.29,0
			c0.76,0.01,2.41,0.17,2.41,1.26c0,1.19-1.85,1.27-2.65,1.27c-2.8,0.05-5.77-0.31-8.54,0.22c-2.32,0.44-4.9,2.01-4.43,4.9
			c0.47,2.87,3.89,3.62,6.18,3.74c1.36,0.06,2.73,0.02,4.09,0.02c1.28,0,2.79-0.19,4.04,0.15C264.79,87.86,265.65,88.8,264.05,89.64
			"/>
		<path d="M308.13,80c0-2.28,2.24-3.22,4.03-3.61c2.62-0.58,5.35-0.7,8.01-0.7c2.59-0.01,5.18,0,7.77,0c0.95,0,4.49,0.35,3.03,2.09
			c-0.54,0.64-1.93,0.7-2.7,0.7c-0.62,0-1.24,0-1.87,0c-2.61,0-5.21,0-7.82,0c-0.42,0-0.89-0.06-1.31,0
			c-0.74,0.16-2.25,0.89-1.57,1.97c0.47,0.75,1.87,0.76,2.6,0.84c1.39,0.16,2.73,0.23,4.13,0.23c2.38,0.01,4.92-0.11,7.06,1.18
			c1.32,0.79,2.27,2.49,1.48,4.05c-0.68,1.33-2.32,1.86-3.62,2.18c-2.58,0.64-5.28,0.7-7.92,0.7c-2.63,0.01-5.27,0-7.9,0
			c-0.94,0-3.42,0.09-3.42-1.27c0-1.42,2.64-1.27,3.61-1.27c3.12,0,6.35,0.22,9.45-0.1c0.73-0.07,1.81-0.16,2.36-0.72
			c0.49-0.5,0.22-1.25-0.29-1.58c-0.74-0.47-1.72-0.54-2.56-0.6c-1.5-0.1-3-0.04-4.5-0.14C314.01,83.81,308.13,83.49,308.13,80"/>
		<path d="M308.13,80c0-2.28,2.24-3.22,4.03-3.61c2.62-0.58,5.35-0.7,8.01-0.7c2.59-0.01,5.18,0,7.77,0c0.95,0,4.49,0.35,3.03,2.09
			c-0.54,0.64-1.93,0.7-2.7,0.7c-0.62,0-1.24,0-1.87,0c-2.61,0-5.21,0-7.82,0c-0.42,0-0.89-0.06-1.31,0
			c-0.74,0.16-2.25,0.89-1.57,1.97c0.47,0.75,1.87,0.76,2.6,0.84c1.39,0.16,2.73,0.23,4.13,0.23c2.38,0.01,4.92-0.11,7.06,1.18
			c1.32,0.79,2.27,2.49,1.48,4.05c-0.68,1.33-2.32,1.86-3.62,2.18c-2.58,0.64-5.28,0.7-7.92,0.7c-2.63,0.01-5.27,0-7.9,0
			c-0.94,0-3.42,0.09-3.42-1.27c0-1.42,2.64-1.27,3.61-1.27c3.12,0,6.35,0.22,9.45-0.1c0.73-0.07,1.81-0.16,2.36-0.72
			c0.49-0.5,0.22-1.25-0.29-1.58c-0.74-0.47-1.72-0.54-2.56-0.6c-1.5-0.1-3-0.04-4.5-0.14C314.01,83.81,308.13,83.49,308.13,80"/>
		<path d="M378.48,89.89c-1.72,0-3.85-0.36-3.85-2.52c0-1.53,0-3.06,0-4.58c0-1.53,0-3.06,0-4.58c0-0.37-0.04-0.77,0.14-1.1
			c0.52-1.02,2.75-1.41,3.72-1.41c1.58,0,4.1,0.51,4.1,2.51c0,1.53,0,3.06,0,4.58c0,1.53,0,3.06,0,4.58
			C382.57,89.6,380.16,89.89,378.48,89.89"/>
		<path d="M378.48,89.89c-1.72,0-3.85-0.36-3.85-2.52c0-1.53,0-3.06,0-4.58c0-1.53,0-3.06,0-4.58c0-0.37-0.04-0.77,0.14-1.1
			c0.52-1.02,2.75-1.41,3.72-1.41c1.58,0,4.1,0.51,4.1,2.51c0,1.53,0,3.06,0,4.58c0,1.53,0,3.06,0,4.58
			C382.57,89.6,380.16,89.89,378.48,89.89"/>
		<path d="M442.32,89.89c-4.13,0-8.56,0.32-12.28-1.88c-2.01-1.19-3.61-3.22-3.35-5.77c0.26-2.57,2.46-4.11,4.55-5.03
			c3.73-1.57,7.85-1.27,11.79-1.27c1.33,0,2.66,0,4,0c0.84,0,1.58,0.1,2.35,0.48c1.46,0.71,0.05,1.63-0.81,1.91
			c-1.24,0.4-2.93,0.15-4.21,0.15c-1.49,0-3.01-0.08-4.49,0.07c-2.42,0.24-5.49,1.13-5.49,4.24c0,2.72,2.44,3.96,4.69,4.38
			c0.87,0.17,2.51,0.32,3.13-0.6c0.33-0.49,0.14-1.53,0.14-2.09c0-0.69-0.11-1.47,0.45-1.97c0.96-0.86,2.95-1.15,4.13-0.92
			c0.88,0.17,2.74,0.45,3.07,1.53c0.2,0.65,0.06,1.51,0.06,2.18c0,2.32-1.47,3.29-3.47,3.94C445.19,89.69,443.76,89.89,442.32,89.89
			"/>
		<path d="M442.32,89.89c-4.13,0-8.56,0.32-12.28-1.88c-2.01-1.19-3.61-3.22-3.35-5.77c0.26-2.57,2.46-4.11,4.55-5.03
			c3.73-1.57,7.85-1.27,11.79-1.27c1.33,0,2.66,0,4,0c0.84,0,1.58,0.1,2.35,0.48c1.46,0.71,0.05,1.63-0.81,1.91
			c-1.24,0.4-2.93,0.15-4.21,0.15c-1.49,0-3.01-0.08-4.49,0.07c-2.42,0.24-5.49,1.13-5.49,4.24c0,2.72,2.44,3.96,4.69,4.38
			c0.87,0.17,2.51,0.32,3.13-0.6c0.33-0.49,0.14-1.53,0.14-2.09c0-0.69-0.11-1.47,0.45-1.97c0.96-0.86,2.95-1.15,4.13-0.92
			c0.88,0.17,2.74,0.45,3.07,1.53c0.2,0.65,0.06,1.51,0.06,2.18c0,2.32-1.47,3.29-3.47,3.94C445.19,89.69,443.76,89.89,442.32,89.89
			"/>
		<path d="M517.97,87.86c0,2.73-5.43,2.41-6.84,1.43c-1.17-0.81-0.87-2.26-0.87-3.54c0-1.71,0-3.42,0-5.14
			c0-0.33,0.08-0.83-0.05-1.15c-0.41-0.97-1.82-0.99-2.66-0.99c-1.34,0-2.68,0-4.02,0c-0.72,0-2.18,0.25-2.18,1.27
			c-0.05,0.38,0,0.8,0,1.18c0,1.74,0,3.48,0,5.22c0,0.53,0,1.06,0,1.59c0,1.01-0.93,1.5-1.69,1.9c-1.48,0.52-6.26,0.75-6.26-1.81
			c0-1.34,0-2.67,0-4.01c0-1.27,0-2.54,0-3.81c0-2.71,3.66-3.6,5.6-4.04c2.91-0.67,6.18-0.27,9.14-0.27c1.32,0,2.67-0.07,3.98,0.2
			c1.98,0.41,5.86,1.36,5.86,4.11C518.13,82.59,517.97,85.26,517.97,87.86"/>
		<path d="M517.97,87.86c0,2.73-5.43,2.41-6.84,1.43c-1.17-0.81-0.87-2.26-0.87-3.54c0-1.71,0-3.42,0-5.14
			c0-0.33,0.08-0.83-0.05-1.15c-0.41-0.97-1.82-0.99-2.66-0.99c-1.34,0-2.68,0-4.02,0c-0.72,0-2.18,0.25-2.18,1.27
			c-0.05,0.38,0,0.8,0,1.18c0,1.74,0,3.48,0,5.22c0,0.53,0,1.06,0,1.59c0,1.01-0.93,1.5-1.69,1.9c-1.48,0.52-6.26,0.75-6.26-1.81
			c0-1.34,0-2.67,0-4.01c0-1.27,0-2.54,0-3.81c0-2.71,3.66-3.6,5.6-4.04c2.91-0.67,6.18-0.27,9.14-0.27c1.32,0,2.67-0.07,3.98,0.2
			c1.98,0.41,5.86,1.36,5.86,4.11C518.13,82.59,517.97,85.26,517.97,87.86"/>
		<path d="M191.54,38.77c-9.3-1.95-18.69-2.41-28.17-2.52c-9.18-0.11-18.58,0.48-27.56,2.44c-4.42,0.96-8.78,2.32-12.74,4.54
			c-3.95,2.21-6.55,6.83-3.58,10.9c2.68,3.67,7.79,5.13,11.94,6.35c4.45,1.31,9.08,2.09,13.69,2.56c9.25,0.93,18.58,0.99,27.85,0.21
			c4.58-0.39,9.1-1.2,13.52-2.47c2.19-0.63,4.29-1.45,6.4-2.28c2.04-0.81,4.22-1.78,5.96-3.14c1.66-1.3,3.28-3.06,4.23-4.22
			c0.63-0.77,1.3-2.09,1.3-2.09s-1.16,0-2.25,0c-5.91,0-29.23,0-34.99,0c-0.5,0-0.74,0-1.24,0l-0.02,4.38c0.93,0,1.85,0,2.78,0
			c6.1,0,12.2,0,18.3,0c-2.57,3.63-8.12,4.41-12.21,5.06c-4.51,0.71-9.29,0.86-13.84,0.68c-4.62-0.18-9.36-0.52-13.86-1.64
			c-4.11-1.03-9.55-2.69-9.1-7.94c0.39-4.62,6.38-6.31,10.06-7.21c4.44-1.09,8.99-1.46,13.54-1.55c4.74-0.08,9.47,0.12,14.17,0.79
			c2.23,0.32,4.38,0.87,6.48,1.69c0.86,0.33,2.68,1.81,2.68,1.81c5.83,0,13.04,0,18.86,0c-1.62-1.99-3.16-3.12-5.33-4.15
			C196.12,39.85,193.83,39.35,191.54,38.77z"/>
		<path d="M363.61,36.24c-5.27,0-19.82,0-21.83,0c0,0-32.1,26.77-33.01,27.52c5.32,0,19.17,0,20.32,0c0,0,4.28-3.88,6.3-5.68
			l33.91,0.01c0.17,0.06,2.87,2.61,4.01,3.7c0.5,0.48,2.08,1.97,2.08,1.97c5.42,0,19.38,0,20.95,0L363.61,36.24z M340.57,53.38
			c3.83-3.49,11.8-10.77,11.89-10.78c0.09-0.01,11.09,10.34,11.55,10.78H340.57z"/>
		<path d="M404.05,50.25c0.26-4.78,4.55-7.59,8.67-9.18c4.34-1.68,8.91-2.74,13.51-3.41c9.19-1.33,18.5-1.49,27.76-1.15
			c4.63,0.17,9.24,0.55,13.82,1.2c4.5,0.63,9.31,1.21,13.23,3.53c1.2,0.71,3.72,2.23,5.22,4.37c-5.36,0-18.05,0-19.02,0
			c0,0-2.9-2.59-8.05-3.57c-4.48-0.85-9.11-1.05-13.66-0.96c-4.71,0.09-9.28,0.49-13.82,1.77c-4.15,1.17-8.65,3.86-7.74,8.79
			c0.81,4.35,7.22,5.84,10.83,6.49c4.63,0.84,9.3,1.06,14.01,0.97c4.49-0.09,9.03-0.48,13.32-1.88c0.91-0.3,1.81-0.74,2.63-1.25
			c0.43-0.27,0.81-0.56,1.2-0.88c0.15-0.11,1-0.88,1-0.88c1.74,0,14.51,0,19.16,0c-2.43,3.75-7.38,5.44-11.47,6.61
			c-4.26,1.22-8.71,2.01-13.13,2.39c-9.47,0.81-18.86,0.79-28.33,0.15c-4.42-0.3-8.94-0.83-13.25-1.89
			c-4.15-1.02-9.1-2.2-12.45-5.04C405.49,54.74,404.21,52.9,404.05,50.25z"/>
		<path d="M520.23,46.96l0.02-5.84c1.61,0,48.93-0.03,48.93-0.03c0-1.45-0.01-4.85-0.01-4.85c-0.44,0-66.09,0-67.8,0
			c0,2.63-0.05,27.52,0.04,27.52c8.97,0,67.49,0,67.77,0l0-4.96c-0.36,0-48.68,0-48.94,0c-0.01,0-0.01-5.81-0.01-7.05
			c0-0.02,44.39-0.01,44.96-0.01l0-4.76C564.9,46.99,520.75,46.96,520.23,46.96z"/>
		<path d="M296.16,59.36c-0.13-1.87,0.19-3.98-1.22-5.44c-1.35-1.39-3.24-1.86-5.04-2.37c-1.78-0.5-3.68-0.69-5.51-0.93
			c4.33-0.47,9.37-1.02,12.82-3.93c1.87-1.58,1.88-3.82-0.06-5.33c-1.77-1.37-3.96-2.15-6.07-2.81c-7.53-2.33-15.72-2.31-23.53-2.31
			c-12.49,0-24.98,0-37.47,0c-1.97,0-3.96,0-5.93,0c-0.37,0-0.74,0-1.11,0c-0.11,0-0.05,0.65-0.05,0.75c0,5.91,0,11.83,0,17.74
			c0,2.62,0,5.24,0,7.86c0,0.06,0,1.17,0,1.17c0.64,0,1.27,0,1.91,0c5.62,0,11.34,0,16.96,0V53.02c5.91,0,12.74-0.04,18.65-0.04
			c4,0,8.1-0.08,12.05,0.66c2.15,0.4,4.04,1.56,4.13,3.92c0.04,1.17-0.03,2.42,0.34,3.54c0.16,0.49,0.41,0.94,0.72,1.35
			c0.17,0.23,0.87,1.31,1.12,1.31c4.08,0,8.15,0,12.23,0c2.4,0,8.9,0,8.9,0S296.36,62.2,296.16,59.36z M279.27,45.15
			c-0.1,2.05-3.94,2.54-5.42,2.77c-2.32,0.35-4.68,0.41-7.02,0.5c-4.96,0.19-9.97,0-14.93,0c-2.85,0-9.53,0-10.02,0
			c0,0,0-3.08,0-3.28c0-1.35,0.01-2.83,0.01-4.18c0,0,6.94,0.05,9.82,0.05c4.99,0,9.98-0.04,14.97,0.04
			c2.29,0.04,4.57,0.18,6.85,0.44c1.7,0.19,4.54,0.65,5.49,2.29C279.22,44.15,279.39,44.72,279.27,45.15z"/>
	</g>
</g>
<g id="bird">
	<g>
		<circle class="st1" cx="58.2" cy="59.2" r="46.8"/>
		<path class="st2" d="M46.67,24.88c3.37-14.33,10.64-7.98,5.93,3.68 M47.11,24.37c1.64-15.11,11.75-9.71,5.93,3.45"/>
		<path class="st3" d="M71.88,89.24l2.24,0.44 M71.87,89.3l-0.04,1.54 M71.9,89.29l-1.88,1.75 M55.67,90.78l1.41,0.97 M55.68,90.66
			l-0.32,1.87 M55.67,90.74l-2.74,1.61 M62.16,55.19l-6.49,35.73 M68.02,70.78l3.84,18.57"/>
		<path class="st0" d="M49.87,27.84c-0.12,2.72-1.75,5.1-3.64,5.33c-1.88,0.23-3.32-1.79-3.2-4.51c0.12-2.72,1.75-5.1,3.63-5.33
			C48.55,23.1,49.99,25.12,49.87,27.84"/>
		<path class="st4" d="M61.91,40.2c-5.08-10.49-11.73-15.22-19.98-14.17c-3.39,0.43-6.41,1.37-9.06,2.83
			c4.04,2.05,7.53,6.09,10.46,12.13c7.22,14.76,13.05,24.11,17.48,28.06c9.87,8.87,24.5,12.76,43.86,11.67
			c-10.07-1.76-18.28-5.5-24.6-11.21C75.47,65.39,69.42,55.62,61.91,40.2"/>
		<path class="st1" d="M45.28,31.8c-0.03,0.62-0.51,1.18-1.07,1.25c-0.57,0.07-1-0.37-0.97-0.99c0.03-0.62,0.51-1.18,1.08-1.25
			C44.87,30.73,45.3,31.18,45.28,31.8"/>
		<path class="st0" d="M55.58,30.05c-0.13,2.82-1.76,5.29-3.65,5.53c-1.89,0.24-3.32-1.85-3.19-4.67c0.13-2.81,1.76-5.29,3.65-5.53
			C54.28,25.14,55.7,27.24,55.58,30.05"/>
		<path class="st2" d="M12.96,104.47c7.32-7.85,30.5-7.22,35.06-7.07h0.05c8.4,0.32,18.97-0.33,18.97-4.23
			c0-3.89-10.27-4.72-18.85-5.2c-10.62-0.59-20.32-0.58-20.32-4.18c0-2.89,7.81-3.45,16.37-3.84c11.71-0.52,11.21-2.79,8.1-24.76
			c-1.06-7.53-0.73-18.94-0.91-19.79"/>
	</g>
</g>
</svg>
