<svg xmlns="http://www.w3.org/2000/svg" width="240.155" height="27.94" viewBox="0 0 240.155 27.94"><g transform="translate(0 0)"><line y2="0.028" transform="translate(13.847 27.912)" fill="blue"/><line y1="0.028" transform="translate(30.003 27.912)" fill="blue"/><path d="M37,247.832V237.259H20.847v10.573H7v-27.94H20.847V230.75H37V219.892H50.85v27.94Z" transform="translate(-7 -219.892)" fill="#004ea2"/><path d="M161.152,219.892H126.759a4.617,4.617,0,0,0-4.617,4.617V247.8h13.631v-8.478h16.156V247.8h13.84v-23.3a4.617,4.617,0,0,0-4.617-4.617Zm-9.223,13.371H135.773v-6.207h16.156Z" transform="translate(-73.46 -219.892)" fill="#004ea2"/><path d="M280.072,231.675v-7.167a4.617,4.617,0,0,0-4.617-4.617H236.141V247.8h13.9V239.29h11.539a4.617,4.617,0,0,1,4.617,4.617V247.8h13.877v-6.9a4.616,4.616,0,0,0-4.533-4.615A4.617,4.617,0,0,0,280.072,231.675Zm-13.877,1.69H250.039v-6.309h16.156Z" transform="translate(-139.259 -219.891)" fill="#004ea2"/><path d="M396.734,224.509a4.617,4.617,0,0,0-4.617-4.617H350.806V247.8H361.9V227.056h6.515V247.8h10.609V227.056h6.441V247.8h11.273Z" transform="translate(-205.442 -219.892)" fill="#004ea2"/><path d="M510.639,219.891H476.108a4.617,4.617,0,0,0-4.617,4.617v18.678a4.616,4.616,0,0,0,4.617,4.617h34.531a4.617,4.617,0,0,0,4.617-4.617V224.508a4.617,4.617,0,0,0-4.617-4.617Zm-8.906,21.293H484.891V226.649h16.841Z" transform="translate(-275.101 -219.891)" fill="#004ea2"/></g></svg>